<svg  viewBox="0 0 143 20" fill="none" xmlns="http://www.w3.org/2000/svg">
<path d="M12.744 5.896C12.744 6.856 12.584 7.624 12.264 8.2C11.96 8.76 11.48 9.256 10.824 9.688L13.056 16H7.752L6.264 10.864H5.88V16H0.96V1.096H7.32C9.176 1.096 10.544 1.488 11.424 2.272C12.304 3.04 12.744 4.248 12.744 5.896ZM6.384 7.936C6.752 7.936 7.008 7.832 7.152 7.624C7.312 7.4 7.392 7.016 7.392 6.472C7.392 5.928 7.312 5.552 7.152 5.344C6.992 5.136 6.744 5.032 6.408 5.032H5.784V7.936H6.384ZM13.8834 10.216C13.8834 8.104 14.3474 6.576 15.2754 5.632C16.2194 4.688 17.6834 4.216 19.6674 4.216C21.6674 4.216 23.1234 4.68 24.0354 5.608C24.9474 6.536 25.4034 8.064 25.4034 10.192C25.4034 12.304 24.9554 13.84 24.0594 14.8C23.1794 15.76 21.7234 16.24 19.6914 16.24C17.6754 16.24 16.2034 15.76 15.2754 14.8C14.3474 13.84 13.8834 12.312 13.8834 10.216ZM20.2914 8.176C20.2114 7.888 20.0034 7.744 19.6674 7.744C19.3314 7.744 19.1154 7.888 19.0194 8.176C18.9394 8.448 18.8994 9.04 18.8994 9.952V10.528C18.8994 11.552 18.9394 12.216 19.0194 12.52C19.1154 12.808 19.3314 12.952 19.6674 12.952C20.0034 12.952 20.2114 12.808 20.2914 12.52C20.3874 12.216 20.4354 11.592 20.4354 10.648V9.976C20.4354 9.048 20.3874 8.448 20.2914 8.176ZM26.1178 10.216C26.1178 8.104 26.5818 6.576 27.5098 5.632C28.4538 4.688 29.9178 4.216 31.9018 4.216C33.9018 4.216 35.3578 4.68 36.2698 5.608C37.1818 6.536 37.6378 8.064 37.6378 10.192C37.6378 12.304 37.1898 13.84 36.2938 14.8C35.4138 15.76 33.9578 16.24 31.9258 16.24C29.9098 16.24 28.4378 15.76 27.5098 14.8C26.5818 13.84 26.1178 12.312 26.1178 10.216ZM32.5258 8.176C32.4458 7.888 32.2378 7.744 31.9018 7.744C31.5658 7.744 31.3498 7.888 31.2538 8.176C31.1738 8.448 31.1338 9.04 31.1338 9.952V10.528C31.1338 11.552 31.1738 12.216 31.2538 12.52C31.3498 12.808 31.5658 12.952 31.9018 12.952C32.2378 12.952 32.4458 12.808 32.5258 12.52C32.6218 12.216 32.6698 11.592 32.6698 10.648V9.976C32.6698 9.048 32.6218 8.448 32.5258 8.176ZM46.6802 4.216C48.9202 4.216 50.0402 5.304 50.0402 7.48V16H44.9762V8.56C44.9762 8.304 44.8402 8.176 44.5682 8.176C44.3122 8.176 44.0242 8.256 43.7042 8.416V16H38.7122V4.504H43.2482L43.3922 5.248C44.4002 4.56 45.4962 4.216 46.6802 4.216ZM56.9576 8.08C56.6216 8.08 56.3896 8.184 56.2616 8.392C56.1336 8.6 56.0696 8.92 56.0696 9.352H57.7976V8.968C57.7976 8.376 57.5176 8.08 56.9576 8.08ZM51.1256 10.216C51.1256 8.312 51.6216 6.84 52.6136 5.8C53.6216 4.744 55.0936 4.216 57.0296 4.216C58.9816 4.216 60.3576 4.616 61.1576 5.416C61.9736 6.216 62.3816 7.36 62.3816 8.848C62.3816 9.44 62.3176 10.336 62.1896 11.536H56.1656C56.2296 12.4 56.7576 12.832 57.7496 12.832C58.2136 12.832 59.4296 12.664 61.3976 12.328L61.8056 15.568C60.1096 16.016 58.5256 16.24 57.0536 16.24C55.1336 16.24 53.6616 15.712 52.6376 14.656C51.6296 13.6 51.1256 12.12 51.1256 10.216ZM68.9811 10.72C69.7171 6.672 70.0931 4.6 70.1091 4.504H75.0531L71.7171 16.192C71.3811 17.376 70.8611 18.184 70.1571 18.616C69.4691 19.064 68.3331 19.288 66.7491 19.288H63.8691L63.3171 15.856H65.2371C65.6531 15.856 65.8611 15.72 65.8611 15.448C65.8611 15.272 65.8211 15.048 65.7411 14.776L62.5971 4.504H67.8771L68.8851 10.72H68.9811ZM86.2354 5.152H83.0674V16H77.9554V5.152H74.6194L74.8354 1.096H86.5234L86.2354 5.152ZM91.9854 9.568V16H87.0414V4.504H91.3134L91.4574 5.272H91.5534C91.9374 4.92 92.3774 4.68 92.8734 4.552C93.3694 4.408 94.0974 4.336 95.0574 4.336L94.9134 8.32H93.2814C92.8014 8.32 92.4654 8.408 92.2734 8.584C92.0814 8.76 91.9854 9.088 91.9854 9.568ZM101.536 8.08C101.2 8.08 100.968 8.184 100.84 8.392C100.712 8.6 100.648 8.92 100.648 9.352H102.376V8.968C102.376 8.376 102.096 8.08 101.536 8.08ZM95.7038 10.216C95.7038 8.312 96.1998 6.84 97.1918 5.8C98.1998 4.744 99.6718 4.216 101.608 4.216C103.56 4.216 104.936 4.616 105.736 5.416C106.552 6.216 106.96 7.36 106.96 8.848C106.96 9.44 106.896 10.336 106.768 11.536H100.744C100.808 12.4 101.336 12.832 102.328 12.832C102.792 12.832 104.008 12.664 105.976 12.328L106.384 15.568C104.688 16.016 103.104 16.24 101.632 16.24C99.7118 16.24 98.2398 15.712 97.2158 14.656C96.2078 13.6 95.7038 12.12 95.7038 10.216ZM116.055 4.216C118.295 4.216 119.415 5.304 119.415 7.48V16H114.351V8.56C114.351 8.304 114.215 8.176 113.943 8.176C113.687 8.176 113.399 8.256 113.079 8.416V16H108.087V4.504H112.623L112.767 5.248C113.775 4.56 114.871 4.216 116.055 4.216ZM130.389 16.24C129.141 16.24 128.285 15.928 127.821 15.304H127.725C126.989 15.928 126.117 16.24 125.109 16.24C123.445 16.24 122.261 15.712 121.557 14.656C120.853 13.6 120.501 12.104 120.501 10.168C120.501 8.232 120.885 6.76 121.653 5.752C122.437 4.728 123.557 4.216 125.013 4.216C125.845 4.216 126.517 4.344 127.029 4.6V0.615999H131.853V12.4C131.853 12.608 131.925 12.752 132.069 12.832C132.229 12.912 132.501 12.952 132.885 12.952L132.453 16.144C131.621 16.208 130.933 16.24 130.389 16.24ZM126.261 7.864C125.941 7.864 125.733 8.048 125.637 8.416C125.557 8.784 125.517 9.424 125.517 10.336C125.517 11.248 125.557 11.888 125.637 12.256C125.717 12.608 125.917 12.784 126.237 12.784C126.573 12.784 126.837 12.752 127.029 12.688V8.032C126.757 7.92 126.501 7.864 126.261 7.864ZM142.7 12.424C142.7 14.968 141.22 16.24 138.26 16.24C136.724 16.24 135.236 16.072 133.796 15.736L134.108 12.208C136.108 12.688 137.436 12.928 138.092 12.928C138.316 12.928 138.428 12.856 138.428 12.712C138.428 12.568 138.3 12.448 138.044 12.352C136.396 11.792 135.196 11.2 134.444 10.576C133.692 9.952 133.316 9.056 133.316 7.888C133.316 6.72 133.724 5.816 134.54 5.176C135.372 4.536 136.484 4.216 137.876 4.216C139.284 4.216 140.828 4.376 142.508 4.696L142.004 8.32C139.892 7.904 138.612 7.696 138.164 7.696C137.956 7.696 137.852 7.776 137.852 7.936C137.852 8.064 137.988 8.176 138.26 8.272C139.588 8.704 140.548 9.136 141.14 9.568C141.732 9.984 142.14 10.416 142.364 10.864C142.588 11.312 142.7 11.832 142.7 12.424Z" fill="currentColor"/>
</svg>
